<?xml version="1.0" encoding="UTF-8"?>
<svg id="Layer_2" data-name="Layer 2" xmlns="http://www.w3.org/2000/svg" viewBox="0 0 337.93 346.87">
  <defs>
    <style>
      .cls-1 {
        fill: #fff;
      }

      .cls-2 {
        fill: #002d4f;
      }

      .cls-3 {
        fill: #3382d1;
      }

      .cls-4 {
        fill: #ea3560;
      }
    </style>
  </defs>
  <g id="OBJECTS">
    <g>
      <g>
        <g>
          <path class="cls-2" d="M260.7,100.9h-12.14v26.85c0,32.08-5.87,57.1-17.95,76.5-6.36,10.21-14.47,18.9-24.44,26.19h-11.15c32.56-19.63,47.37-52.27,47.37-102.69v-26.85H95.54v26.85c0,50.42,14.82,83.06,47.37,102.69h-11.15c-9.97-7.29-18.08-15.98-24.44-26.19-12.08-19.4-17.95-44.42-17.95-76.5v-26.85h-12.14c-.13,0-.23,.1-.23,.23V232.64c0,.13,.1,.23,.23,.23h183.47c.13,0,.23-.1,.23-.23V101.14c0-.13-.1-.23-.23-.23Z"/>
          <path class="cls-3" d="M257.32,89.96h-24.15c2.04,1.21,4.18,2.26,6.41,3.14l5.09,2.02,3.89,1.55v6.65h8.77c.12,0,.22,.1,.22,.22v126.67c0,.12-.1,.22-.22,.22H80.61c-.12,0-.22-.1-.22-.22V103.56c0-.12,.1-.22,.22-.22h8.77v-6.65l3.89-1.55,5.09-2.02c2.22-.88,4.36-1.94,6.41-3.14h-24.15c-7.49,0-13.59,6.1-13.59,13.59v126.67c0,7.49,6.1,13.59,13.59,13.59h176.71c7.49,0,13.59-6.1,13.59-13.59V103.56c0-7.49-6.1-13.59-13.59-13.59Z"/>
          <path class="cls-3" d="M301.88,243.81h-112.32c-.32,3.24-3.02,5.78-6.35,5.78h-28.51c-3.33,0-6.02-2.54-6.35-5.78H36.05s0,.02,0,.03c0,6.84,5.55,12.39,12.39,12.39h241.06c6.84,0,12.39-5.55,12.39-12.39,0-.01,0-.02,0-.03Z"/>
          <rect class="cls-2" x="80.38" y="243.31" width="177.16" height="1"/>
        </g>
        <g>
          <g>
            <path class="cls-2" d="M237.3,98.81c-13.26-5.27-23.97-15.86-29.39-29.05l-2.05-5h-73.78l-2.06,5.01c-5.41,13.19-16.13,23.78-29.39,29.05l-5.09,2.02v26.89c0,50.46,14.84,83.11,47.46,102.73h51.92c32.62-19.62,47.46-52.27,47.46-102.73v-26.89l-5.09-2.02Zm-11.06,28.91c0,52.87-17.17,82.16-57.28,97.35-40.11-15.19-57.28-44.48-57.28-97.35v-16.19c13.3-6.6,24.24-17.42,30.97-30.64h52.61c6.73,13.22,17.67,24.05,30.97,30.64v16.19Z"/>
            <path class="cls-4" d="M111.69,111.53v16.19c0,52.87,17.17,82.16,57.28,97.35,40.11-15.19,57.28-44.48,57.28-97.35v-16.19c-13.3-6.6-24.24-17.42-30.97-30.64h-52.61c-6.73,13.23-17.67,24.05-30.97,30.64Z"/>
            <path class="cls-2" d="M168.96,219.54l-.19-.07c-18.03-7.2-30.8-17.52-39.05-31.55-8.67-14.75-12.89-34.44-12.89-60.19v-13.07l.26-.14c11.89-6.63,21.75-16.39,28.5-28.21l.14-.25h46.44l.14,.25c6.75,11.82,16.6,21.58,28.5,28.21l.26,.14v13.07c0,25.75-4.22,45.44-12.89,60.19-8.25,14.03-21.02,24.35-39.05,31.55l-.19,.07Zm-51.12-104.3v12.48c0,25.57,4.17,45.09,12.75,59.69,8.1,13.78,20.66,23.94,38.37,31.06,17.72-7.11,30.27-17.27,38.37-31.06,8.58-14.59,12.75-34.12,12.75-59.69v-12.48c-11.86-6.67-21.69-16.41-28.48-28.19h-45.28c-6.79,11.78-16.62,21.52-28.48,28.19Z"/>
            <g>
              <path class="cls-2" d="M139.59,125.6h.01c.72-.73,1.86-.77,2.58-.05l2.57,2.57c1.36-1.74,2.98-3.28,4.83-4.59l-2.69-2.69c-.72-.72-.68-1.87,.04-2.58,0,0,0,0,.01-.01,2.28-2.28,2.21-6.02-.2-8.21-2.16-1.96-5.54-1.93-7.67,.05-.61,.57-1.07,1.25-1.37,1.97-.82,1.96-2.35,3.49-4.31,4.31-.72,.3-1.4,.76-1.97,1.37-1.98,2.13-2.01,5.51-.05,7.66,2.19,2.42,5.93,2.48,8.22,.2Z"/>
              <path class="cls-2" d="M188.34,123.52c1.85,1.31,3.47,2.85,4.83,4.59l2.57-2.57c.72-.72,1.87-.68,2.58,.04,0,0,0,0,.01,.01,2.28,2.28,6.02,2.21,8.22-.2,1.96-2.15,1.93-5.53-.05-7.66-.57-.61-1.25-1.07-1.97-1.37-1.96-.82-3.49-2.35-4.31-4.31-.3-.72-.76-1.4-1.37-1.97-2.13-1.98-5.51-2.01-7.67-.05-2.42,2.19-2.48,5.93-.2,8.21,0,0,0,0,.01,.01,.72,.71,.76,1.86,.04,2.58l-2.69,2.69Z"/>
              <path class="cls-2" d="M151.6,169.67c-2.48-.91-4.29-2.22-5.48-3.95l-3.94,3.94c-.72,.72-1.87,.68-2.58-.04,0,0,0,0-.01-.01-2.28-2.28-6.02-2.21-8.22,.2-1.96,2.15-1.93,5.53,.05,7.66,.57,.61,1.25,1.07,1.97,1.37,1.96,.82,3.49,2.35,4.31,4.31,.3,.72,.76,1.4,1.37,1.97,2.13,1.98,5.51,2.01,7.67,.05,2.42-2.19,2.49-5.93,.2-8.21,0,0,0,0-.01-.01-.72-.71-.76-1.86-.04-2.58l4.7-4.7Z"/>
              <path class="cls-2" d="M198.34,169.6s0,0-.01,.01c-.72,.72-1.86,.76-2.58,.04l-3.94-3.94c-1.18,1.73-3,3.04-5.48,3.95l4.7,4.7c.72,.72,.68,1.87-.04,2.58,0,0,0,0-.01,.01-2.28,2.28-2.21,6.02,.2,8.21,2.16,1.96,5.54,1.93,7.67-.05,.62-.57,1.07-1.25,1.37-1.97,.82-1.96,2.35-3.49,4.31-4.31,.72-.3,1.4-.76,1.97-1.37,1.98-2.13,2.01-5.51,.05-7.66-2.19-2.42-5.93-2.48-8.22-.2Z"/>
              <path class="cls-2" d="M168.96,120.8c-24.42,0-32.65,19.97-20.9,36.15-2.28,6.52,.82,10.49,10.45,11.37,0,0,.85,6.04,2.68,7.52,.38,.31,1.21,.54,2.29,.72v-5.87h1.83v6.1c.85,.07,1.76,.12,2.69,.14v-6.25h1.83v6.25c.93-.01,1.85-.06,2.69-.12v-6.13h1.83v5.91c1.16-.18,2.05-.43,2.38-.76,1.51-1.48,2.68-7.52,2.68-7.52,9.63-.88,12.73-4.85,10.45-11.37,11.75-16.18,3.52-36.15-20.9-36.15Zm-19.97,22.43l16.35,7.27c-10.53,7.79-18.39,1.57-16.35-7.27Zm19.97,13.76l-2.3,1.4,2.3-5.25,2.3,5.25-2.3-1.4Zm3.62-6.49l16.35-7.27c2.04,8.84-5.82,15.07-16.35,7.27Z"/>
            </g>
          </g>
          <g>
            <path class="cls-2" d="M201.77,42.54c-2.26,0-4.1,1.84-4.1,4.1v11.32s0-.06,0-.09c-.16,2.11-1.91,3.78-4.07,3.78s-3.91-1.67-4.07-3.78c0,.11-.03,.21-.03,.32v-18.58c0-2.24-1.68-4.27-3.92-4.37-2.35-.1-4.29,1.77-4.29,4.1v13.69c0-.11-.02-.21-.03-.32-.16,2.11-1.91,3.78-4.07,3.78s-3.91-1.67-4.07-3.78c0,0,0-.03,0-.04v-4.14c0-2.28-1.85-4.13-4.13-4.13s-4.1,1.84-4.1,4.1v1.53s0,.05,0,.08v3.63s0,0,0-.01c-.16,2.11-1.91,3.78-4.07,3.78s-3.91-1.67-4.07-3.78c0,.11-.03,.21-.03,.32v-20.64c0-2.24-1.68-4.27-3.92-4.37-2.35-.1-4.29,1.77-4.29,4.1v18.83c0-.11-.02-.21-.03-.32-.16,2.11-1.91,3.78-4.07,3.78s-3.91-1.67-4.07-3.78c0,.07-.02-5.69-.02-5.69,0-2.27-1.84-4.1-4.11-4.1s-4.11,1.84-4.11,4.11v9.98h0v14.06h73.83v-23.34c0-2.28-1.85-4.13-4.13-4.13Z"/>
            <rect class="cls-2" x="148.46" y="11.44" width="8.23" height="13.13" rx="4.12" ry="4.12"/>
            <rect class="cls-2" x="181.26" y="12.53" width="8.23" height="17.71" rx="4.12" ry="4.12"/>
            <path class="cls-2" d="M185.38,8.23h0c-2.27,0-4.11-1.84-4.11-4.11h0c0-2.27,1.84-4.11,4.11-4.11h0c2.27,0,4.11,1.84,4.11,4.11h0c0,2.27-1.84,4.11-4.11,4.11Z"/>
          </g>
        </g>
      </g>
      <g>
        <polygon class="cls-2" points="292.06 346.87 45.87 346.87 36.05 303.56 301.88 303.56 292.06 346.87"/>
        <polygon class="cls-4" points="325.44 319.77 12.49 319.77 0 269.31 337.93 269.31 325.44 319.77"/>
        <g>
          <path class="cls-1" d="M79.35,285.73h-8.76v-2.69c0-1.25-.11-2.05-.34-2.4-.22-.34-.6-.52-1.12-.52-.57,0-1,.23-1.29,.7-.29,.46-.44,1.17-.44,2.11,0,1.21,.16,2.12,.49,2.74,.31,.61,1.2,1.35,2.67,2.22,4.2,2.49,6.84,4.54,7.93,6.13,1.09,1.6,1.64,4.18,1.64,7.73,0,2.58-.3,4.49-.91,5.71-.6,1.23-1.77,2.25-3.51,3.08-1.73,.83-3.75,1.24-6.05,1.24-2.52,0-4.68-.48-6.46-1.43-1.79-.96-2.95-2.17-3.51-3.65-.55-1.48-.83-3.58-.83-6.3v-2.37h8.76v4.41c0,1.36,.12,2.23,.37,2.62,.25,.39,.68,.58,1.31,.58s1.09-.25,1.4-.74c.31-.49,.46-1.22,.46-2.2,0-2.14-.29-3.53-.87-4.19-.6-.66-2.07-1.75-4.41-3.29-2.35-1.55-3.9-2.68-4.66-3.38s-1.39-1.67-1.89-2.91c-.5-1.24-.75-2.82-.75-4.75,0-2.78,.35-4.81,1.06-6.09,.71-1.28,1.86-2.29,3.44-3.01,1.58-.72,3.49-1.09,5.74-1.09,2.45,0,4.54,.4,6.26,1.19,1.72,.79,2.87,1.79,3.43,2.99,.56,1.2,.84,3.25,.84,6.13v1.43Z"/>
          <path class="cls-1" d="M92.03,281.29l-.16,2.63c.81-1.06,1.69-1.86,2.67-2.38,.97-.52,2.03-.79,3.18-.79,1.4,0,2.62,.38,3.64,1.13s1.66,1.62,1.92,2.61c.25,.99,.38,2.66,.38,5.02v12.52c0,2.7-.16,4.63-.48,5.77-.32,1.14-.98,2.05-1.97,2.73-.99,.68-2.19,1.02-3.6,1.02-1.12,0-2.16-.26-3.11-.79-.96-.52-1.83-1.3-2.62-2.33v6.82h-9.05v-33.96h9.21Zm2.58,8.65c0-1.84-.07-2.95-.2-3.34-.13-.39-.51-.58-1.12-.58s-.98,.22-1.15,.67c-.17,.45-.26,1.53-.26,3.25v12.32c0,1.79,.09,2.91,.27,3.36,.18,.45,.57,.67,1.17,.67s.94-.21,1.09-.62c.14-.41,.21-1.41,.21-2.99v-12.75Z"/>
          <path class="cls-1" d="M114.72,292.8h-8.49v-1.99c0-2.3,.27-4.07,.8-5.32s1.59-2.35,3.19-3.3c1.6-.96,3.67-1.43,6.23-1.43,3.06,0,5.37,.54,6.92,1.62,1.55,1.08,2.49,2.41,2.8,3.99s.47,4.82,.47,9.73v14.92h-8.8v-2.65c-.55,1.06-1.27,1.86-2.14,2.39s-1.91,.8-3.13,.8c-1.58,0-3.04-.44-4.36-1.33s-1.98-2.83-1.98-5.84v-2.44c0-2.23,.35-3.74,1.05-4.55,.7-.81,2.44-1.75,5.22-2.82,2.97-1.16,4.56-1.95,4.77-2.35,.21-.4,.31-1.22,.31-2.46,0-1.55-.12-2.57-.35-3.04-.23-.47-.62-.71-1.15-.71-.61,0-.99,.2-1.14,.59-.15,.4-.22,1.42-.22,3.08v3.11Zm2.87,4.08c-1.45,1.06-2.29,1.95-2.52,2.67-.23,.72-.35,1.75-.35,3.09,0,1.54,.1,2.53,.3,2.98,.2,.45,.6,.67,1.2,.67s.94-.18,1.11-.53c.17-.35,.26-1.27,.26-2.77v-6.12Z"/>
          <path class="cls-1" d="M138.7,281.29l-.16,2.83c.7-1.12,1.54-1.96,2.51-2.52,.97-.56,2.08-.84,3.32-.84,2.42,0,4.32,1.12,5.71,3.37,.76-1.12,1.62-1.96,2.58-2.52,.96-.56,2.02-.84,3.18-.84,1.54,0,2.81,.37,3.82,1.12,1.01,.75,1.65,1.66,1.94,2.74,.28,1.08,.43,2.84,.43,5.28v21.13h-8.78v-19.38c0-2.54-.09-4.11-.26-4.72-.17-.61-.57-.91-1.2-.91s-1.06,.3-1.24,.9c-.19,.6-.28,2.17-.28,4.73v19.38h-8.78v-18.89c0-2.91-.07-4.66-.21-5.24s-.53-.87-1.18-.87c-.4,0-.75,.15-1.03,.46-.28,.31-.44,.68-.47,1.12s-.04,1.38-.04,2.81v20.61h-8.78v-29.73h8.94Z"/>
          <path class="cls-1" d="M195.51,290.54h-9.43v-6.3c0-1.83-.1-2.98-.3-3.43-.2-.45-.65-.68-1.33-.68-.78,0-1.27,.28-1.48,.83s-.31,1.75-.31,3.58v16.85c0,1.76,.1,2.91,.31,3.45,.21,.54,.68,.81,1.41,.81s1.16-.27,1.38-.81c.22-.54,.33-1.8,.33-3.8v-4.56h9.43v1.41c0,3.75-.26,6.42-.79,7.99-.53,1.57-1.7,2.95-3.52,4.13-1.81,1.18-4.05,1.77-6.71,1.77s-5.04-.5-6.83-1.5c-1.79-1-2.98-2.39-3.56-4.16-.58-1.77-.87-4.43-.87-7.99v-10.6c0-2.61,.09-4.57,.27-5.88,.18-1.31,.71-2.57,1.6-3.77s2.12-2.16,3.7-2.86,3.39-1.04,5.43-1.04c2.78,0,5.07,.54,6.88,1.61s2.99,2.41,3.56,4.02c.57,1.6,.85,4.1,.85,7.48v3.45Z"/>
          <path class="cls-1" d="M206.71,292.8h-8.49v-1.99c0-2.3,.27-4.07,.8-5.32s1.59-2.35,3.19-3.3c1.6-.96,3.67-1.43,6.23-1.43,3.06,0,5.37,.54,6.92,1.62,1.55,1.08,2.49,2.41,2.8,3.99s.47,4.82,.47,9.73v14.92h-8.8v-2.65c-.55,1.06-1.27,1.86-2.14,2.39s-1.91,.8-3.13,.8c-1.58,0-3.04-.44-4.36-1.33s-1.98-2.83-1.98-5.84v-2.44c0-2.23,.35-3.74,1.05-4.55,.7-.81,2.44-1.75,5.22-2.82,2.97-1.16,4.56-1.95,4.77-2.35,.21-.4,.31-1.22,.31-2.46,0-1.55-.12-2.57-.35-3.04-.23-.47-.62-.71-1.15-.71-.61,0-.99,.2-1.14,.59-.15,.4-.22,1.42-.22,3.08v3.11Zm2.87,4.08c-1.45,1.06-2.29,1.95-2.52,2.67-.23,.72-.35,1.75-.35,3.09,0,1.54,.1,2.53,.3,2.98,.2,.45,.6,.67,1.2,.67s.94-.18,1.11-.53c.17-.35,.26-1.27,.26-2.77v-6.12Z"/>
          <path class="cls-1" d="M231.29,277.32v4.68h2.44v4.7h-2.44v15.91c0,1.96,.1,3.05,.3,3.27,.2,.22,1.04,.34,2.52,.34v4.79h-3.65c-2.06,0-3.53-.09-4.41-.26-.88-.17-1.66-.57-2.33-1.19-.67-.62-1.09-1.33-1.25-2.13-.16-.8-.25-2.68-.25-5.63v-15.1h-1.95v-4.7h1.95v-4.68h9.07Z"/>
          <path class="cls-1" d="M255.73,292.51h-8.54v-3.43c0-1.19-.1-2.01-.29-2.43-.19-.43-.55-.64-1.08-.64s-.87,.19-1.05,.56c-.18,.37-.27,1.21-.27,2.51v14.02c0,1.06,.13,1.86,.4,2.39s.66,.8,1.19,.8c.61,0,1.03-.28,1.24-.83s.33-1.6,.33-3.14v-3.54h8.07c-.01,2.37-.1,4.16-.26,5.34s-.66,2.4-1.5,3.65-1.95,2.19-3.3,2.82c-1.36,.63-3.04,.95-5.04,.95-2.55,0-4.58-.44-6.07-1.31s-2.55-2.1-3.17-3.67c-.62-1.58-.93-3.81-.93-6.71v-8.45c0-2.52,.25-4.43,.76-5.71,.51-1.28,1.59-2.43,3.25-3.44s3.67-1.51,6.05-1.51,4.38,.5,6.05,1.5c1.67,1,2.79,2.26,3.34,3.79,.55,1.52,.83,3.68,.83,6.47Z"/>
          <path class="cls-1" d="M267.47,274.75v8.16c.78-.72,1.62-1.26,2.52-1.62,.9-.36,1.87-.54,2.9-.54,1.58,0,2.93,.4,4.04,1.21,1.11,.81,1.79,1.74,2.04,2.79s.37,2.98,.37,5.77v20.5h-9.05v-20.92c0-1.73-.09-2.85-.26-3.34s-.56-.74-1.15-.74c-.55,0-.93,.25-1.12,.76-.19,.51-.29,1.52-.29,3.02v21.22h-9.05v-36.27h9.05Z"/>
        </g>
        <g>
          <path class="cls-1" d="M59.66,335.7v-8.89h1.25v8.89h-1.25Zm.62,0v-1.19h5.09v1.19h-5.09Z"/>
          <path class="cls-1" d="M69.31,335.79c-.88,0-1.57-.25-2.05-.74s-.73-1.19-.73-2.1v-.72c0-.95,.23-1.68,.7-2.19s1.12-.78,1.97-.78c.8,0,1.42,.29,1.86,.88s.66,1.41,.66,2.47v.42h-4.28v-1h3.09c-.04-.51-.17-.91-.4-1.2s-.54-.43-.93-.43c-.47,0-.83,.15-1.09,.46s-.39,.75-.39,1.31v.81c0,.53,.14,.93,.42,1.21s.67,.42,1.18,.42c.25,0,.5-.05,.75-.15s.47-.24,.67-.43l.82,.82c-.31,.3-.67,.53-1.06,.7s-.78,.25-1.18,.25Z"/>
          <path class="cls-1" d="M72.94,330.48v-1.12h2.86v1.12h-2.86Zm2.14,5.25c-.52,0-.9-.14-1.13-.43s-.35-.71-.35-1.25v-6.54h1.25v6.55c0,.15,.03,.27,.09,.35s.15,.13,.27,.13h.6v1.19h-.72Z"/>
          <path class="cls-1" d="M77.02,329.93v-3.12h1.25v3.12h-1.25Z"/>
          <path class="cls-1" d="M81.74,335.79c-.56,0-1.07-.08-1.53-.25s-.87-.41-1.23-.74l.74-.91c.35,.26,.69,.46,1.02,.59s.67,.2,1,.2c.49,0,.86-.08,1.11-.23s.37-.38,.37-.69c0-.24-.08-.4-.25-.5s-.38-.16-.65-.19-.55-.06-.86-.08c-.26-.02-.51-.05-.76-.09s-.48-.12-.69-.23-.37-.28-.5-.5-.19-.52-.19-.89c0-.67,.21-1.18,.62-1.51s1.02-.5,1.84-.5c.5,0,.96,.07,1.39,.2s.83,.34,1.2,.62l-.75,.91c-.32-.2-.63-.36-.94-.46s-.61-.15-.9-.15c-.42,0-.74,.07-.95,.22s-.32,.36-.32,.65c0,.19,.07,.33,.22,.41s.34,.14,.58,.16,.5,.05,.78,.07c.26,.02,.53,.05,.8,.09s.52,.13,.75,.25,.41,.3,.55,.54,.21,.57,.21,.98c0,.68-.22,1.19-.66,1.53s-1.11,.51-2,.51Z"/>
          <path class="cls-1" d="M91.91,335.79c-.87,0-1.55-.24-2.03-.72s-.72-1.16-.72-2.04v-1.05c0-.87,.24-1.54,.72-2.01s1.15-.71,2.03-.71c.5,0,.95,.09,1.34,.26s.72,.43,.95,.75l-.9,.81c-.18-.2-.38-.36-.62-.47s-.49-.17-.76-.17c-.48,0-.85,.13-1.12,.4s-.4,.65-.4,1.14v1.05c0,.5,.13,.89,.4,1.16s.64,.41,1.12,.41c.26,0,.52-.06,.76-.18s.45-.29,.62-.5l.9,.87c-.24,.32-.56,.56-.96,.74s-.85,.26-1.34,.26Z"/>
          <path class="cls-1" d="M97.61,335.79c-.78,0-1.36-.16-1.75-.48s-.58-.82-.58-1.48,.18-1.1,.53-1.42,.89-.47,1.6-.47h1.8l.09,1h-1.88c-.32,0-.56,.07-.73,.22s-.24,.37-.24,.66c0,.32,.11,.56,.32,.72s.54,.23,.97,.23c.47,0,.83-.05,1.06-.15s.35-.26,.35-.48l.13,.89c-.11,.17-.25,.31-.41,.42s-.35,.19-.56,.25-.45,.08-.71,.08Zm1.55-.09v-4.02c0-.42-.11-.74-.33-.97s-.54-.35-.94-.35c-.25,0-.49,.04-.74,.11s-.46,.18-.65,.33l-.91-.62c.24-.29,.56-.51,.95-.68s.83-.24,1.31-.24c.79,0,1.41,.21,1.85,.62s.65,.99,.65,1.74v4.08h-1.19Z"/>
          <path class="cls-1" d="M101.76,330.48v-1.12h2.86v1.12h-2.86Zm2.14,5.25c-.52,0-.9-.14-1.13-.43s-.35-.71-.35-1.25v-6.54h1.25v6.55c0,.15,.03,.27,.09,.35s.15,.13,.27,.13h.6v1.19h-.72Z"/>
          <path class="cls-1" d="M108.89,335.79c-.87,0-1.55-.24-2.03-.72s-.72-1.16-.72-2.04v-1.05c0-.87,.24-1.54,.72-2.01s1.15-.71,2.03-.71c.5,0,.95,.09,1.34,.26s.72,.43,.95,.75l-.9,.81c-.18-.2-.38-.36-.62-.47s-.49-.17-.76-.17c-.48,0-.85,.13-1.12,.4s-.4,.65-.4,1.14v1.05c0,.5,.13,.89,.4,1.16s.64,.41,1.12,.41c.26,0,.52-.06,.76-.18s.45-.29,.62-.5l.9,.87c-.24,.32-.56,.56-.96,.74s-.85,.26-1.34,.26Z"/>
          <path class="cls-1" d="M112.57,335.7v-8.89h1.25v8.89h-1.25Zm3.85,0v-3.85c0-.45-.12-.79-.35-1.04s-.56-.37-.98-.37-.72,.11-.94,.32-.33,.51-.33,.9l-.13-1.22c.2-.37,.45-.67,.77-.87s.67-.31,1.05-.31c.69,0,1.22,.23,1.6,.68s.57,1.09,.57,1.91v3.85h-1.25Z"/>
          <path class="cls-1" d="M124.17,329.35v3.86c0,.44,.11,.79,.34,1.03s.55,.36,.96,.36,.73-.11,.95-.33,.33-.52,.33-.92l.09,1.33c-.11,.29-.31,.54-.6,.77s-.66,.34-1.12,.34c-.7,0-1.24-.23-1.62-.68s-.57-1.09-.57-1.9v-3.86h1.25Zm2.58,6.35v-6.35h1.24v6.35h-1.24Z"/>
          <path class="cls-1" d="M131.9,335.81c-.7,0-1.24-.23-1.62-.68s-.57-1.09-.57-1.9v-1.4c0-.82,.19-1.46,.56-1.91s.9-.68,1.57-.68c.37,0,.72,.1,1.03,.29s.56,.47,.75,.83l-.13,1.3c0-.27-.05-.5-.15-.69s-.24-.34-.42-.44-.41-.15-.68-.15c-.41,0-.73,.13-.96,.39s-.34,.62-.34,1.08v1.38c0,.46,.11,.82,.34,1.07s.55,.38,.96,.38c.26,0,.49-.05,.68-.16s.33-.25,.42-.45,.15-.43,.15-.7l.09,1.34c-.11,.29-.31,.54-.59,.77s-.64,.34-1.09,.34Zm.12,2.47c-.48,0-.9-.09-1.28-.27s-.67-.43-.88-.75l.84-.76c.16,.22,.36,.4,.58,.52s.46,.18,.71,.18c.48,0,.85-.13,1.11-.39s.39-.63,.39-1.12v-6.34h1.25v6.16c0,.88-.24,1.56-.71,2.04s-1.15,.72-2.01,.72Z"/>
          <path class="cls-1" d="M137.88,326.81v7.25c0,.15,.03,.27,.1,.35s.16,.13,.28,.13h.59v1.19h-.73c-.47,0-.83-.15-1.09-.44s-.39-.71-.39-1.24v-7.24h1.25Z"/>
          <path class="cls-1" d="M142.12,336.22l-2.53-6.87h1.27l1.95,5.51-.69,1.35Zm1.82-6.87h1.27l-2.7,7.83c-.15,.44-.37,.74-.65,.91s-.68,.25-1.17,.25h-.25v-1.2h.25c.23,0,.42-.05,.55-.14s.26-.25,.36-.48l2.35-7.17Z"/>
          <path class="cls-1" d="M151.91,335.79c-.56,0-1.07-.08-1.53-.25s-.87-.41-1.23-.74l.74-.91c.35,.26,.69,.46,1.02,.59s.67,.2,1,.2c.49,0,.86-.08,1.11-.23s.37-.38,.37-.69c0-.24-.08-.4-.25-.5s-.38-.16-.65-.19-.55-.06-.86-.08c-.26-.02-.51-.05-.76-.09s-.48-.12-.69-.23-.37-.28-.5-.5-.19-.52-.19-.89c0-.67,.21-1.18,.62-1.51s1.02-.5,1.84-.5c.5,0,.96,.07,1.39,.2s.83,.34,1.2,.62l-.75,.91c-.32-.2-.63-.36-.94-.46s-.61-.15-.9-.15c-.42,0-.74,.07-.95,.22s-.32,.36-.32,.65c0,.19,.07,.33,.22,.41s.34,.14,.58,.16,.5,.05,.78,.07c.26,.02,.53,.05,.8,.09s.52,.13,.75,.25,.41,.3,.55,.54,.21,.57,.21,.98c0,.68-.22,1.19-.66,1.53s-1.11,.51-2,.51Z"/>
          <path class="cls-1" d="M156.16,338.28v-8.93h1.25v8.93h-1.25Zm2.84-2.49c-.4,0-.74-.09-1.03-.28s-.51-.46-.65-.8l.09-1.33c0,.27,.05,.51,.15,.7s.24,.34,.42,.44,.41,.15,.68,.15c.41,0,.73-.13,.96-.38s.34-.6,.34-1.06v-1.38c0-.46-.11-.83-.34-1.08s-.55-.39-.96-.39c-.26,0-.49,.05-.68,.15s-.33,.24-.42,.43-.15,.42-.15,.68l-.13-1.22c.19-.37,.44-.66,.75-.86s.65-.3,1.03-.3c.68,0,1.21,.23,1.58,.68s.56,1.09,.56,1.91v1.38c0,.81-.19,1.44-.57,1.89s-.92,.67-1.62,.67Z"/>
          <path class="cls-1" d="M165,335.79c-.78,0-1.36-.16-1.75-.48s-.58-.82-.58-1.48,.18-1.1,.53-1.42,.89-.47,1.6-.47h1.8l.09,1h-1.88c-.32,0-.56,.07-.73,.22s-.24,.37-.24,.66c0,.32,.11,.56,.32,.72s.54,.23,.97,.23c.47,0,.83-.05,1.06-.15s.35-.26,.35-.48l.13,.89c-.11,.17-.25,.31-.41,.42s-.35,.19-.56,.25-.45,.08-.71,.08Zm1.55-.09v-4.02c0-.42-.11-.74-.33-.97s-.54-.35-.94-.35c-.25,0-.49,.04-.74,.11s-.46,.18-.65,.33l-.91-.62c.24-.29,.56-.51,.95-.68s.83-.24,1.31-.24c.79,0,1.41,.21,1.85,.62s.65,.99,.65,1.74v4.08h-1.19Z"/>
          <path class="cls-1" d="M169.63,335.7v-6.35h1.25v6.35h-1.25Zm3.79,0v-3.85c0-.45-.11-.79-.33-1.04s-.53-.37-.94-.37-.72,.11-.94,.32-.33,.52-.33,.91l-.13-1.22c.2-.38,.45-.68,.77-.89s.67-.31,1.05-.31c.67,0,1.19,.23,1.55,.68s.55,1.09,.55,1.91v3.85h-1.25Zm3.79,0v-3.85c0-.45-.12-.79-.35-1.04s-.56-.37-.98-.37c-.39,0-.69,.12-.9,.35s-.32,.57-.32,1l-.25-1.22c.2-.42,.47-.75,.79-.98s.69-.34,1.08-.34c.69,0,1.22,.23,1.6,.68s.57,1.09,.57,1.91v3.85h-1.25Z"/>
          <path class="cls-1" d="M180.36,335.7v-6.35h1.25v6.35h-1.25Zm3.79,0v-3.85c0-.45-.11-.79-.33-1.04s-.53-.37-.94-.37-.72,.11-.94,.32-.33,.52-.33,.91l-.13-1.22c.2-.38,.45-.68,.77-.89s.67-.31,1.05-.31c.67,0,1.19,.23,1.55,.68s.55,1.09,.55,1.91v3.85h-1.25Zm3.79,0v-3.85c0-.45-.12-.79-.35-1.04s-.56-.37-.98-.37c-.39,0-.69,.12-.9,.35s-.32,.57-.32,1l-.25-1.22c.2-.42,.47-.75,.79-.98s.69-.34,1.08-.34c.69,0,1.22,.23,1.6,.68s.57,1.09,.57,1.91v3.85h-1.25Z"/>
          <path class="cls-1" d="M193.68,335.79c-.88,0-1.57-.25-2.05-.74s-.73-1.19-.73-2.1v-.72c0-.95,.23-1.68,.7-2.19s1.12-.78,1.97-.78c.8,0,1.42,.29,1.86,.88s.66,1.41,.66,2.47v.42h-4.28v-1h3.09c-.04-.51-.17-.91-.4-1.2s-.54-.43-.93-.43c-.47,0-.83,.15-1.09,.46s-.39,.75-.39,1.31v.81c0,.53,.14,.93,.42,1.21s.67,.42,1.18,.42c.25,0,.5-.05,.75-.15s.47-.24,.67-.43l.82,.82c-.31,.3-.67,.53-1.06,.7s-.78,.25-1.18,.25Z"/>
          <path class="cls-1" d="M197.79,335.7v-6.35h1.25v6.35h-1.25Zm3.49-4.84c-.11-.13-.25-.24-.42-.31s-.36-.1-.58-.1c-.4,0-.7,.11-.92,.33s-.33,.52-.33,.91l-.13-1.22c.19-.37,.44-.67,.75-.88s.66-.32,1.03-.32c.29,0,.55,.04,.79,.13s.44,.21,.61,.37l-.81,1.1Z"/>
          <path class="cls-1" d="M205.38,335.79c-.56,0-1.07-.08-1.53-.25s-.87-.41-1.23-.74l.74-.91c.35,.26,.69,.46,1.02,.59s.67,.2,1,.2c.49,0,.86-.08,1.11-.23s.37-.38,.37-.69c0-.24-.08-.4-.25-.5s-.38-.16-.65-.19-.55-.06-.86-.08c-.26-.02-.51-.05-.76-.09s-.48-.12-.69-.23-.37-.28-.5-.5-.19-.52-.19-.89c0-.67,.21-1.18,.62-1.51s1.02-.5,1.84-.5c.5,0,.96,.07,1.39,.2s.83,.34,1.2,.62l-.75,.91c-.32-.2-.63-.36-.94-.46s-.61-.15-.9-.15c-.42,0-.74,.07-.95,.22s-.32,.36-.32,.65c0,.19,.07,.33,.22,.41s.34,.14,.58,.16,.5,.05,.78,.07c.26,.02,.53,.05,.8,.09s.52,.13,.75,.25,.41,.3,.55,.54,.21,.57,.21,.98c0,.68-.22,1.19-.66,1.53s-1.11,.51-2,.51Z"/>
          <path class="cls-1" d="M212.99,328.06v-1.25h1.25v1.25h-1.25Zm0,7.64v-6.35h1.25v6.35h-1.25Z"/>
          <path class="cls-1" d="M216.13,335.7v-6.35h1.25v6.35h-1.25Zm3.85,0v-3.85c0-.45-.12-.79-.35-1.04s-.56-.37-.98-.37-.72,.11-.94,.32-.33,.52-.33,.91l-.13-1.22c.2-.38,.45-.68,.77-.89s.67-.31,1.05-.31c.69,0,1.22,.23,1.6,.68s.57,1.09,.57,1.91v3.85h-1.25Z"/>
          <path class="cls-1" d="M229.28,335.79c-.43,0-.84-.04-1.22-.12s-.74-.2-1.07-.37-.64-.37-.93-.61l.78-.95c.34,.29,.71,.51,1.12,.66s.85,.22,1.33,.22c.64,0,1.14-.12,1.5-.36s.53-.58,.53-1.01h0c0-.34-.09-.6-.27-.78s-.41-.31-.71-.4-.61-.16-.96-.22c-.33-.06-.67-.12-1.01-.2s-.65-.2-.94-.36-.51-.4-.69-.71-.26-.72-.26-1.24h0c0-.83,.28-1.47,.83-1.93s1.33-.68,2.33-.68c.48,0,.94,.08,1.4,.23s.9,.39,1.33,.7l-.71,.99c-.34-.25-.68-.44-1.01-.56s-.67-.18-1.01-.18c-.61,0-1.08,.12-1.42,.36s-.5,.59-.5,1.03h0c0,.34,.1,.6,.29,.77s.45,.3,.77,.39,.66,.16,1.02,.24c.33,.07,.65,.14,.98,.24s.62,.22,.89,.4,.48,.41,.64,.71,.24,.69,.24,1.18h0c0,.83-.29,1.47-.86,1.91s-1.37,.67-2.41,.67Z"/>
          <path class="cls-1" d="M234.19,335.7v-6.35h1.25v6.35h-1.25Zm3.49-4.84c-.11-.13-.25-.24-.42-.31s-.36-.1-.58-.1c-.4,0-.7,.11-.92,.33s-.33,.52-.33,.91l-.13-1.22c.19-.37,.44-.67,.75-.88s.66-.32,1.03-.32c.29,0,.55,.04,.79,.13s.44,.21,.61,.37l-.81,1.1Z"/>
          <path class="cls-1" d="M239.54,328.06v-1.25h1.25v1.25h-1.25Zm0,7.64v-6.35h1.25v6.35h-1.25Z"/>
          <path class="cls-1" d="M246.16,335.7v-8.89h1.25v8.89h-1.25Zm.62,0v-1.19h5.09v1.19h-5.09Z"/>
          <path class="cls-1" d="M255.25,335.79c-.78,0-1.36-.16-1.75-.48s-.58-.82-.58-1.48,.18-1.1,.53-1.42,.89-.47,1.6-.47h1.8l.09,1h-1.88c-.32,0-.56,.07-.73,.22s-.24,.37-.24,.66c0,.32,.11,.56,.32,.72s.54,.23,.97,.23c.47,0,.83-.05,1.06-.15s.35-.26,.35-.48l.13,.89c-.11,.17-.25,.31-.41,.42s-.35,.19-.56,.25-.45,.08-.71,.08Zm1.55-.09v-4.02c0-.42-.11-.74-.33-.97s-.54-.35-.94-.35c-.25,0-.49,.04-.74,.11s-.46,.18-.65,.33l-.91-.62c.24-.29,.56-.51,.95-.68s.83-.24,1.31-.24c.79,0,1.41,.21,1.85,.62s.65,.99,.65,1.74v4.08h-1.19Z"/>
          <path class="cls-1" d="M259.88,335.7v-6.35h1.25v6.35h-1.25Zm3.85,0v-3.85c0-.45-.12-.79-.35-1.04s-.56-.37-.98-.37-.72,.11-.94,.32-.33,.52-.33,.91l-.13-1.22c.2-.38,.45-.68,.77-.89s.67-.31,1.05-.31c.69,0,1.22,.23,1.6,.68s.57,1.09,.57,1.91v3.85h-1.25Z"/>
          <path class="cls-1" d="M266.88,335.7v-8.89h1.25v8.89h-1.25Zm.46-.93l.08-1.48,3.26-3.94h1.47l-4.81,5.42Zm3.77,.93l-2.21-3.66,.8-.83,2.77,4.49h-1.36Z"/>
          <path class="cls-1" d="M275.53,335.79c-.78,0-1.36-.16-1.75-.48s-.58-.82-.58-1.48,.18-1.1,.53-1.42,.89-.47,1.6-.47h1.8l.09,1h-1.88c-.32,0-.56,.07-.73,.22s-.24,.37-.24,.66c0,.32,.11,.56,.32,.72s.54,.23,.97,.23c.47,0,.83-.05,1.06-.15s.35-.26,.35-.48l.13,.89c-.11,.17-.25,.31-.41,.42s-.35,.19-.56,.25-.45,.08-.71,.08Zm1.55-.09v-4.02c0-.42-.11-.74-.33-.97s-.54-.35-.94-.35c-.25,0-.49,.04-.74,.11s-.46,.18-.65,.33l-.91-.62c.24-.29,.56-.51,.95-.68s.83-.24,1.31-.24c.79,0,1.41,.21,1.85,.62s.65,.99,.65,1.74v4.08h-1.19Z"/>
        </g>
      </g>
    </g>
  </g>
</svg>